<svg xmlns="http://www.w3.org/2000/svg" width="150" height="150" viewBox="0 0 110 110">
      <g fill='white'>
      <circle cx="948.327" cy="398.664" r="2.974" />
      <circle cx="996.444" cy="398.664" r="2.974" />
      <circle cx="963.601" cy="389.742" r="2.974" />
      <circle cx="981.171" cy="389.742" r="2.974" />
      <circle cx="996.444" cy="447.727" r="2.974" />
      <circle cx="948.327" cy="447.727" r="2.974" />
      <circle cx="981.171" cy="456.646" r="2.974" />
      <circle cx="963.601" cy="456.646" r="2.974" />
      <path d="M956.414 411.727h-3.842a.269.269 0 0 0-.264.207l-3.801 15.775-3.996-15.779a.274.274 0 0 0-.264-.203h-3.873a.271.271 0 0 0-.262.203l-4.115 15.75-3.697-15.746a.27.27 0 0 0-.264-.207h-3.844a.27.27 0 0 0-.26.34l5.691 21.834a.266.266 0 0 0 .26.201h3.918a.269.269 0 0 0 .262-.201l4.186-15.793 4.088 15.793a.27.27 0 0 0 .262.201h3.857a.276.276 0 0 0 .262-.199l5.957-21.834a.272.272 0 0 0-.261-.342zm29.961 0h-3.844a.272.272 0 0 0-.264.207l-3.799 15.775-3.998-15.779a.272.272 0 0 0-.262-.203h-3.873a.27.27 0 0 0-.262.203l-4.117 15.75-3.697-15.746a.27.27 0 0 0-.264-.207h-3.842a.268.268 0 0 0-.213.104.276.276 0 0 0-.049.236l5.691 21.834a.27.27 0 0 0 .262.201h3.918c.121 0 .23-.082.26-.201l4.188-15.793 4.086 15.793a.27.27 0 0 0 .264.201h3.857a.272.272 0 0 0 .26-.199l5.959-21.834a.273.273 0 0 0-.261-.342zm30.172.107a.267.267 0 0 0-.211-.107h-3.844a.271.271 0 0 0-.266.207l-3.799 15.779-3.996-15.783a.276.276 0 0 0-.264-.203h-3.873a.27.27 0 0 0-.262.203l-4.117 15.754-3.695-15.75a.274.274 0 0 0-.264-.207h-3.844a.27.27 0 0 0-.262.34l5.693 21.834a.266.266 0 0 0 .26.201h3.918a.268.268 0 0 0 .26-.201l4.186-15.789 4.088 15.789a.27.27 0 0 0 .262.201h3.859a.272.272 0 0 0 .26-.199l5.957-21.834a.258.258 0 0 0-.046-.235z" />
    </g>
</svg>